<?xml version="1.0" encoding="UTF-8"?>
<svg xmlns="http://www.w3.org/2000/svg" onmouseup="{ if(window.parent.document.onmouseup) window.parent.document.onmouseup(arguments[0]);}" xml:space="preserve" style="enable-background:new 0 0 36 36;" viewBox="0 0 36 36" y="0px" x="0px" id="S_Efficient_18_N_2x" version="1.1" xmlns:xlink="http://www.w3.org/1999/xlink"><style type="text/css">
	.st0{fill:#FFFFFF;}
</style><path data-cppathid="10000" d="M9.2,13.6c-0.8,0-1.5-0.7-1.5-1.5c0-0.6,0.4-1.2,1-1.4c3.1-1.2,6.3-2.2,9.5-3.1c2.8-0.6,5.7-1.1,8.6-1.3  c0.8-0.1,1.5,0.6,1.6,1.4c0.1,0.8-0.6,1.5-1.4,1.6l0,0c-2.7,0.2-5.4,0.7-8.1,1.3c-3.1,0.8-6.1,1.8-9,2.9C9.6,13.5,9.4,13.6,9.2,13.6  z" class="st0"/><path data-cppathid="10001" d="M9.5,7.4C8.7,7.4,8,6.7,8,5.9c0-0.6,0.4-1.2,1-1.4c3-1.2,6.1-2.1,9.2-2.9c0.8-0.2,1.6-0.3,2.3-0.5  C21.2,1,22,1.5,22.2,2.3c0.2,0.8-0.4,1.6-1.2,1.8c-0.7,0.1-1.4,0.3-2.2,0.5c-3,0.7-5.9,1.7-8.7,2.8C9.9,7.4,9.7,7.4,9.5,7.4z" class="st0"/><path data-cppathid="10002" d="M13.5,33v0.9c0,0.4,0.2,0.8,0.4,1.1l0.6,0.6c0.3,0.3,0.7,0.4,1.1,0.4h4.8c0.4,0,0.8-0.2,1.1-0.4l0.6-0.6  c0.3-0.3,0.4-0.7,0.4-1.1V33c0.8,0,1.5-0.7,1.5-1.5v0v-1.9c0-0.8-0.7-1.5-1.5-1.5h-9c-0.8,0-1.5,0.7-1.5,1.5v1.9  C12,32.3,12.7,33,13.5,33z" class="st0"/><path data-cppathid="10003" d="M9.7,19.4c-0.8,0-1.5-0.7-1.5-1.5c0-0.6,0.4-1.2,1-1.4c2.9-1.1,5.9-2.1,9-2.9c2.8-0.6,5.7-1.1,8.6-1.3  c0.8-0.1,1.5,0.6,1.6,1.4c0.1,0.8-0.6,1.5-1.4,1.6c-2.7,0.2-5.4,0.7-8.1,1.3c-2.9,0.7-5.7,1.6-8.5,2.7C10.1,19.3,9.9,19.4,9.7,19.4z  " class="st0"/><path data-cppathid="10004" d="M13.5,21.7V26h3v-4.3c0-0.6-0.1-1.2-0.4-1.7c-1.1,0.3-2.1,0.7-3,1C13.3,21.2,13.5,21.5,13.5,21.7z" class="st0"/><path data-cppathid="10005" d="M26.5,18h-3.2c-2.1,0-3.7,1.7-3.8,3.8V26h3v-4.3c0-0.4,0.3-0.7,0.8-0.8h3.2c0.8,0,1.5-0.7,1.5-1.5  S27.3,18,26.5,18z" class="st0"/></svg>