<?xml version="1.0" encoding="UTF-8"?>
<svg xmlns="http://www.w3.org/2000/svg" onmouseup="{ if(window.parent.document.onmouseup) window.parent.document.onmouseup(arguments[0]);}" xml:space="preserve" style="enable-background:new 0 0 36 36;" viewBox="0 0 36 36" y="0px" x="0px" id="S_Targeted_18_N_2x" version="1.1" xmlns:xlink="http://www.w3.org/1999/xlink"><style type="text/css">
	.st0{fill:#EFF2F4;}
	.st1{font-family:'Tahoma';}
	.st2{font-size:3.3899px;}
</style><path data-cppathid="10000" d="M16.8,17.1l-2-2v-1.3c0-0.2-0.1-0.4-0.2-0.5l-1.7-2c-0.1-0.1-0.2-0.1-0.3,0c0,0,0,0.1,0,0.2l-0.6,1.5l-1.5,0.6  c-0.1,0-0.2,0.1-0.2,0.2c0,0,0,0.1,0,0.2l2,1.8c0.2,0.1,0.3,0.2,0.5,0.2H14l2.1,2.1c0.1,0.1,0.3,0.1,0.4,0l0,0l0.4-0.4  C16.9,17.4,16.9,17.2,16.8,17.1L16.8,17.1z" class="st0"/><path data-cppathid="10001" d="M17.5,16.7c0.3,0.5,0.2,1.1-0.2,1.4L17,18.5c-0.4,0.4-0.9,0.5-1.4,0.2c0.3,0.8,1.2,1.2,2,0.9  c0.8-0.3,1.2-1.2,0.9-2C18.3,17.2,17.9,16.8,17.5,16.7L17.5,16.7z" class="st0"/><path data-cppathid="10002" d="M17,12c-0.7,0-1.4,0.1-2.1,0.4l0.3,0.3c0.3,0.3,0.5,0.7,0.5,1.2v0.7c2.1-0.8,4.3,0.2,5.2,2.3  c0.8,2.1-0.2,4.4-2.2,5.2s-4.3-0.2-5.2-2.3c-0.3-0.9-0.3-1.9,0-2.9h-0.7c-0.4,0-0.9-0.2-1.2-0.5l-0.3-0.3c-1.2,3.2,0.5,6.8,3.7,7.9  c3.2,1.2,6.7-0.5,7.9-3.7s-0.5-6.8-3.7-7.9C18.4,12.1,17.7,12,17,12z" class="st0"/><text data-cppathid="10003" class="st0 st1 st2" transform="matrix(0.9394 0 0 1 0.4619 7.1035)">¿Qué vamos a aprender?</text></svg>