<?xml version="1.0" encoding="UTF-8"?>
<svg xmlns="http://www.w3.org/2000/svg" onmouseup="{ if(window.parent.document.onmouseup) window.parent.document.onmouseup(arguments[0]);}" xml:space="preserve" style="enable-background:new 0 0 36 36;" viewBox="0 0 36 36" y="0px" x="0px" id="S_Visibility_18_N_2x" version="1.1" xmlns:xlink="http://www.w3.org/1999/xlink"><style type="text/css">
	.st0{fill:#F7F8F9;}
	.st1{fill:#FFFFFF;}
	.st2{font-family:'Tahoma';}
	.st3{font-size:3.7098px;}
</style><path data-cppathid="10000" d="M21.5,13.7c-1.1-0.5-2.3-0.8-3.5-0.8c-4.5,0-8.3,4.2-8.3,5.5c0,1.4,3.9,5.2,8.2,5.2c4.4,0,8.3-3.7,8.3-5.2  C26.3,17.3,24.1,14.8,21.5,13.7z M18,22.7c-2.7,0-4.8-2-4.8-4.5s2.2-4.5,4.8-4.5s4.8,2,4.8,4.5S20.7,22.7,18,22.7L18,22.7z" class="st0"/><path data-cppathid="10001" d="M19.4,18.3c-0.8,0-1.4-0.6-1.4-1.3c0-0.5,0.3-0.9,0.7-1.1c-0.2-0.1-0.5-0.1-0.7-0.1c-1.5,0-2.7,1.1-2.7,2.4  c0,1.4,1.2,2.4,2.7,2.4s2.7-1.1,2.7-2.4c0,0,0,0,0,0c0-0.2,0-0.4-0.1-0.6C20.3,18,19.9,18.3,19.4,18.3z" class="st0"/><text data-cppathid="10002" class="st1 st2 st3" transform="matrix(1 0 0 1 -0.2871 5.7632)">¿Cuál es nuestro reto?</text></svg>