<?xml version="1.0" encoding="UTF-8"?>
<svg xmlns="http://www.w3.org/2000/svg" onmouseup="{ if(window.parent.document.onmouseup) window.parent.document.onmouseup(arguments[0]);}" xml:space="preserve" style="enable-background:new 0 0 36 36;" viewBox="0 0 36 36" y="0px" x="0px" id="S_Undo_18_N_2x" version="1.1" xmlns:xlink="http://www.w3.org/1999/xlink"><style type="text/css">
	.st0{fill:#0A36ED;}
</style><path data-cppathid="10000" d="M30.7,12.5c-1.9-1.7-4.4-2.6-7-2.5H11V4.8C11,4.4,10.6,4,10.2,4l0,0C10,4,9.8,4.1,9.7,4.2l-7.5,7.4  c-0.2,0.2-0.2,0.5,0,0.7l7.5,7.5C9.8,19.9,10,20,10.2,20c0.4,0,0.8-0.4,0.8-0.8V14h12.9c3.3-0.1,6,2.5,6.2,5.8  c0.2,3.2-2.3,6-5.6,6.2c-0.2,0-0.4,0-0.5,0h-7c-0.6,0-1,0.4-1,1v2c0,0.6,0.4,1,1,1h6.5c5.3,0.1,9.8-3.8,10.4-9  C34.3,17.8,33.1,14.7,30.7,12.5z" class="st0"/></svg>