<?xml version="1.0" encoding="UTF-8"?>
<svg xmlns="http://www.w3.org/2000/svg" onmouseup="{ if(window.parent.document.onmouseup) window.parent.document.onmouseup(arguments[0]);}" xml:space="preserve" style="enable-background:new 0 0 36 36;" viewBox="0 0 36 36" y="0px" x="0px" id="S_Redo_18_N_2x" version="1.1" xmlns:xlink="http://www.w3.org/1999/xlink"><style type="text/css">
	.st0{fill:#1B42EA;}
</style><path data-cppathid="10000" d="M5.3,12.5c1.9-1.7,4.4-2.6,7-2.5H25V4.8C25,4.4,25.4,4,25.8,4c0.2,0,0.4,0.1,0.5,0.2l7.5,7.4  c0.2,0.2,0.2,0.5,0,0.7l-7.5,7.5C26.2,19.9,26,20,25.8,20c-0.4,0-0.8-0.4-0.8-0.8V14H12.1c-3.3-0.1-6,2.5-6.2,5.8  c-0.2,3.2,2.3,6,5.6,6.2c0.2,0,0.4,0,0.5,0h7c0.6,0,1,0.4,1,1v2c0,0.6-0.4,1-1,1h-6.5C7.2,30.1,2.7,26.2,2,21  C1.7,17.8,2.9,14.7,5.3,12.5z" class="st0"/></svg>