<?xml version="1.0" encoding="UTF-8"?>
<svg xmlns="http://www.w3.org/2000/svg" onmouseup="{ if(window.parent.document.onmouseup) window.parent.document.onmouseup(arguments[0]);}" xml:space="preserve" style="enable-background:new 0 0 36 36;" viewBox="0 0 36 36" y="0px" x="0px" id="S_Close_18_N_2x" version="1.1" xmlns:xlink="http://www.w3.org/1999/xlink"><style type="text/css">
	.st0{fill:#F70808;}
</style><path data-cppathid="10000" d="M26.5,6.7L18,15.2L9.5,6.7c-0.4-0.4-1-0.4-1.4,0L6.7,8.1c-0.4,0.4-0.4,1,0,1.4l8.5,8.5l-8.5,8.5  c-0.4,0.4-0.4,1,0,1.4l1.4,1.4c0.4,0.4,1,0.4,1.4,0l8.5-8.5l8.5,8.5c0.4,0.4,1,0.4,1.4,0l1.4-1.4c0.4-0.4,0.4-1,0-1.4L20.8,18  l8.5-8.5c0.4-0.4,0.4-1,0-1.4l-1.4-1.4C27.5,6.3,26.9,6.3,26.5,6.7C26.5,6.7,26.5,6.7,26.5,6.7z" class="st0"/></svg>