<?xml version="1.0" encoding="UTF-8"?>
<svg xmlns="http://www.w3.org/2000/svg" onmouseup="{ if(window.parent.document.onmouseup) window.parent.document.onmouseup(arguments[0]);}" xml:space="preserve" style="enable-background:new 0 0 36 36;" viewBox="0 0 36 36" y="0px" x="0px" id="S_BackAndroid_18_N_2x" version="1.1" xmlns:xlink="http://www.w3.org/1999/xlink"><style type="text/css">
	.st0{fill:#34B70F;}
</style><path data-cppathid="10000" d="M35.5,16.1h-28l9.9-9.9c0.4-0.4,0.4-1,0-1.4c0,0,0,0,0,0L16.7,4c-0.4-0.4-1-0.4-1.4,0L2.5,16.9  c-0.4,0.4-0.4,1,0,1.4L15.3,32c0.4,0.4,1,0.4,1.4,0l0.7-0.7c0.4-0.4,0.4-1,0-1.4L7.5,19h28c0.3,0,0.5-0.2,0.5-0.5v-1.9  C36,16.3,35.8,16.1,35.5,16.1z" class="st0"/></svg>