<?xml version="1.0" encoding="UTF-8"?>
<svg xmlns="http://www.w3.org/2000/svg" onmouseup="{ if(window.parent.document.onmouseup) window.parent.document.onmouseup(arguments[0]);}" xml:space="preserve" style="enable-background:new 0 0 36 36;" viewBox="0 0 36 36" y="0px" x="0px" id="S_PlayCircle_18_N_2x" version="1.1" xmlns:xlink="http://www.w3.org/1999/xlink"><style type="text/css">
	.st0{fill:#EF0F0F;}
</style><path data-cppathid="10000" d="M18,2C9.2,2,2,9.2,2,18s7.2,16,16,16s16-7.2,16-16S26.8,2,18,2z M26.5,18.9l-12,7C14.4,26,14.2,26,14,26h-1  c-0.6,0-1-0.4-1-1V11c0-0.6,0.4-1,1-1h1c0.2,0,0.4,0,0.5,0.1l12,7c0.5,0.3,0.6,0.9,0.3,1.4C26.8,18.7,26.7,18.8,26.5,18.9z" class="st0"/></svg>