<?xml version="1.0" encoding="UTF-8"?>
<svg xmlns="http://www.w3.org/2000/svg" onmouseup="{ if(window.parent.document.onmouseup) window.parent.document.onmouseup(arguments[0]);}" xml:space="preserve" style="enable-background:new 0 0 36 36;" viewBox="0 0 36 36" y="0px" x="0px" id="S_CloseCircle_18_N_2x" version="1.1" xmlns:xlink="http://www.w3.org/1999/xlink"><style type="text/css">
	.st0{fill:#EF0C0C;}
</style><path data-cppathid="10000" d="M29.3,6.7c-6.2-6.2-16.4-6.2-22.6,0s-6.2,16.4,0,22.6s16.4,6.2,22.6,0c0,0,0,0,0,0  C35.6,23.1,35.6,12.9,29.3,6.7z M26.6,25.2l-1.4,1.4c-0.5,0.5-1.2,0.5-1.7,0c0,0,0,0,0,0L18,21.1l-5.5,5.5c-0.5,0.5-1.2,0.5-1.7,0  c0,0,0,0,0,0l-1.4-1.4c-0.5-0.5-0.5-1.2,0-1.7c0,0,0,0,0,0l5.5-5.5l-5.5-5.5c-0.5-0.5-0.5-1.2,0-1.7c0,0,0,0,0,0l1.4-1.4  c0.5-0.5,1.2-0.5,1.7,0c0,0,0,0,0,0l5.5,5.5l5.5-5.5c0.5-0.5,1.2-0.5,1.7,0c0,0,0,0,0,0l1.4,1.4c0.5,0.5,0.5,1.2,0,1.7c0,0,0,0,0,0  L21.1,18l5.5,5.5C27.1,24,27.1,24.7,26.6,25.2C26.6,25.2,26.6,25.2,26.6,25.2L26.6,25.2z" class="st0"/></svg>