<?xml version="1.0" encoding="UTF-8"?>
<svg xmlns="http://www.w3.org/2000/svg" onmouseup="{ if(window.parent.document.onmouseup) window.parent.document.onmouseup(arguments[0]);}" xml:space="preserve" style="enable-background:new 0 0 36 16.7;" viewBox="0 0 36 16.7" y="0px" x="0px" id="S_Article_18_N_2x" version="1.1" xmlns:xlink="http://www.w3.org/1999/xlink"><style type="text/css">
	.st0{fill:#F2F4F4;}
</style><rect data-cppathid="10000" height="1" width="4" class="st0" y="4.3" x="19"/><rect data-cppathid="10001" height="1" width="4" class="st0" y="8.3" x="19"/><rect data-cppathid="10002" height="1" width="4.8" class="st0" y="10.2" x="12.9"/><rect data-cppathid="10003" height="1" width="4" class="st0" y="6.3" x="19"/><rect data-cppathid="10004" height="1" width="4" class="st0" y="10.2" x="19"/><rect data-cppathid="10005" height="5.1" width="4.8" class="st0" y="4.3" x="12.9"/><path data-cppathid="10006" d="M24,2.2H12c-0.2,0-0.4,0.2-0.4,0.5v12.1c0,0.3,0.2,0.5,0.4,0.5H24c0.2,0,0.4-0.2,0.4-0.5V2.7  C24.4,2.4,24.3,2.2,24,2.2z M12.4,14.3V3.2h11.3v11.1H12.4z" class="st0"/><text data-cppathid="10007" style="fill:#EDF2F4; font-family:'Tahoma'; font-size:3.1126px;" transform="matrix(0.9039 0 0 1 0.5024 -2.9527)">¿De qué situación partimos?</text></svg>