<?xml version="1.0" encoding="UTF-8"?>
<svg xmlns="http://www.w3.org/2000/svg" onmouseup="{ if(window.parent.document.onmouseup) window.parent.document.onmouseup(arguments[0]);}" xml:space="preserve" style="enable-background:new 0 0 36 36;" viewBox="0 0 36 36" y="0px" x="0px" id="S_Dropdown_18_N_2x" version="1.1" xmlns:xlink="http://www.w3.org/1999/xlink"><style type="text/css">
	.st0{fill:#FFFFFF;}
</style><path data-cppathid="10000" d="M30.5,2h-27C2.7,2,2,2.7,2,3.5v5C2,9.3,2.7,10,3.5,10h27c0.8,0,1.5-0.7,1.5-1.5v-5C32,2.7,31.3,2,30.5,2z   M25,8.8l-3.7-4c-0.2-0.2-0.1-0.5,0.1-0.6C21.4,4.1,21.5,4,21.6,4h6.8c0.2,0,0.4,0.2,0.4,0.4c0,0.1,0,0.2-0.1,0.3L25,8.8z" class="st0"/><path data-cppathid="10001" d="M30.5,12h-27C2.7,12,2,12.7,2,13.5v19C2,33.3,2.7,34,3.5,34h27c0.8,0,1.5-0.7,1.5-1.5v-19  C32,12.7,31.3,12,30.5,12z M6,15.7C6,15.3,6.3,15,6.8,15h20.5c0.4,0,0.8,0.3,0.8,0.8v1.5c0,0.4-0.3,0.8-0.8,0.8H6.8  C6.3,18,6,17.7,6,17.2V15.7z M28,29.2c0,0.4-0.3,0.8-0.8,0.8H6.8C6.3,30,6,29.7,6,29.2v-1.5C6,27.3,6.3,27,6.8,27l0,0h20.5  c0.4,0,0.8,0.3,0.8,0.8l0,0V29.2z M26,23.2c0,0.4-0.3,0.8-0.8,0.8H6.8C6.3,24,6,23.7,6,23.2v-1.5C6,21.3,6.3,21,6.8,21h18.5  c0.4,0,0.8,0.3,0.8,0.8V23.2z" class="st0"/></svg>