<?xml version="1.0" encoding="UTF-8"?>
<svg xmlns="http://www.w3.org/2000/svg" onmouseup="{ if(window.parent.document.onmouseup) window.parent.document.onmouseup(arguments[0]);}" xml:space="preserve" style="enable-background:new 0 0 36 36;" viewBox="0 0 36 36" y="0px" x="0px" id="S_Search_18_N_2x" version="1.1" xmlns:xlink="http://www.w3.org/1999/xlink"><style type="text/css">
	.st0{fill:#FFFFFF;}
</style><path data-cppathid="10000" d="M33.2,30.2l-7.8-7.8c4.1-5.8,2.8-13.8-3-17.9S8.7,1.7,4.5,7.5s-2.8,13.8,3,17.9c4.5,3.2,10.5,3.2,14.9,0  l7.8,7.8c0.9,0.7,2.2,0.6,3-0.3C33.8,32.1,33.8,31,33.2,30.2L33.2,30.2z M6,15c0-5,4-9,9-9s9,4,9,9s-4,9-9,9S6,20,6,15z" class="st0"/></svg>