<?xml version="1.0" encoding="UTF-8"?>
<svg xmlns="http://www.w3.org/2000/svg" onmouseup="{ if(window.parent.document.onmouseup) window.parent.document.onmouseup(arguments[0]);}" xml:space="preserve" style="enable-background:new 0 0 36 36;" viewBox="0 0 36 36" y="0px" x="0px" id="S_Visibility_18_N_2x" version="1.1" xmlns:xlink="http://www.w3.org/1999/xlink"><style type="text/css">
	.st0{fill:#F7F8F9;}
</style><path data-cppathid="10000" d="M25.9,8.3c-2.4-1.1-4.9-1.7-7.5-1.7c-9.6,0-17.7,9-17.7,11.8c0,3,8.3,11.1,17.5,11.1c9.4,0,17.7-7.9,17.7-11.1  C36.2,16,31.5,10.6,25.9,8.3z M18.5,27.5c-5.8,0-10.3-4.3-10.3-9.6s4.7-9.6,10.3-9.6s10.3,4.3,10.3,9.6S24.2,27.5,18.5,27.5  L18.5,27.5z" class="st0"/><path data-cppathid="10001" d="M21.5,18.1c-1.7,0-3-1.3-3-2.8c0-1.1,0.6-1.9,1.5-2.4c-0.4-0.2-1.1-0.2-1.5-0.2c-3.2,0-5.8,2.4-5.8,5.1  c0,3,2.6,5.1,5.8,5.1s5.8-2.4,5.8-5.1l0,0c0-0.4,0-0.9-0.2-1.3C23.4,17.5,22.5,18.1,21.5,18.1z" class="st0"/></svg>