<?xml version="1.0" encoding="UTF-8"?>
<svg xmlns="http://www.w3.org/2000/svg" onmouseup="{ if(window.parent.document.onmouseup) window.parent.document.onmouseup(arguments[0]);}" xml:space="preserve" style="enable-background:new 0 0 36 36;" viewBox="0 0 36 36" y="0px" x="0px" id="S_EditIn_18_N_2x" version="1.1" xmlns:xlink="http://www.w3.org/1999/xlink"><style type="text/css">
	.st0{fill:#EFF2F4;}
</style><path data-cppathid="10000" d="M14.3,29.9H4.8V4.6h24.7v8c0.3,0,0.3,0,0.6,0c0.9,0,1.7,0.3,2.6,1.1l0.9,0.9V1.8c0-0.6-0.3-1.1-1.1-1.1H1.9  c-0.6,0-1.1,0.3-1.1,1.1v31.6c0,0.6,0.3,1.1,1.1,1.1h11.2L14.3,29.9z" class="st0"/><path data-cppathid="10001" d="M35.8,20.2l-4.3-4.6c-0.3-0.3-0.3-0.3-0.9-0.3s-0.6,0-0.9,0.3L18.3,27.3L18,27.6l-2.6,7.8  c0,0.3,0.3,0.6,0.6,0.6l0,0c0.3,0,6.6-2.3,7.5-2.6c0,0,0.3,0,0.3-0.3l11.5-11.8c0.3-0.3,0.3-0.3,0.3-0.9  C36.1,20.7,36.1,20.4,35.8,20.2z M17.7,34.2l2-5.7l3.7,3.7C21.7,32.8,19.1,34,17.7,34.2z" class="st0"/></svg>