<?xml version="1.0" encoding="UTF-8"?>
<svg xmlns="http://www.w3.org/2000/svg" onmouseup="{ if(window.parent.document.onmouseup) window.parent.document.onmouseup(arguments[0]);}" xml:space="preserve" style="enable-background:new 0 0 36 36;" viewBox="0 0 36 36" y="0px" x="0px" id="S_Draw_18_N_2x" version="1.1" xmlns:xlink="http://www.w3.org/1999/xlink"><style type="text/css">
	.st0{fill:#F9F9F9;}
</style><path data-cppathid="10000" d="M20.5,8L5.1,23.4c-0.1,0.1-0.2,0.3-0.3,0.4l-2.8,9.3c-0.1,0.4,0.5,0.8,0.8,0.8c0,0,0,0,0.1,0  c0.3-0.1,7.9-2.3,9.3-2.8c0.2,0,0.3-0.1,0.4-0.3L28,15.5L20.5,8z M11.4,29.3c-2.2,0.6-4.9,1.5-6.7,2l2-6.7L11.4,29.3z" class="st0"/><path data-cppathid="10001" d="M33.6,8.2l-5.8-5.8c-0.2-0.2-0.5-0.4-0.9-0.4h0c-0.3,0-0.7,0.2-0.9,0.4l-4.1,4.1l7.5,7.5l4.1-4.1  c0.2-0.2,0.4-0.5,0.4-0.9C33.9,8.8,33.8,8.5,33.6,8.2z" class="st0"/></svg>