<?xml version="1.0" encoding="UTF-8"?>
<svg xmlns="http://www.w3.org/2000/svg" onmouseup="{ if(window.parent.document.onmouseup) window.parent.document.onmouseup(arguments[0]);}" xml:space="preserve" style="enable-background:new 0 0 36 36;" viewBox="0 0 36 36" y="0px" x="0px" id="S_AnnotatePen_18_N_2x" version="1.1" xmlns:xlink="http://www.w3.org/1999/xlink"><style type="text/css">
	.st0{fill:#FFFFFF;}
</style><path data-cppathid="10000" d="M28,4.4c0.4-0.4,0.3-1,0-1.4c-0.4-0.4-1-0.4-1.4,0c0,0,0,0,0,0c0,0-0.1,0.1-0.1,0.1l0,0l-8.7,8.7l0,0  c-0.1,0-0.1,0.1-0.1,0.1c-0.4,0.4-0.4,1,0,1.4s1,0.4,1.4,0c0,0,0.1-0.1,0.1-0.2l0,0l8.7-8.7l0,0C27.9,4.4,28,4.4,28,4.4z" class="st0"/><path data-cppathid="10001" d="M29.8,5.9c-0.7,0.7-9.5,9.6-9.6,9.7c-0.7,0.5-1.6,0.5-2.4,0l-0.8-0.7L6.3,25.5C6.1,25.6,6,25.8,6,26l-1.9,6.4  c-0.1,0.2,0,0.4,0.2,0.5c0.1,0,0.2,0,0.3,0l6.4-2c0.2-0.1,0.3-0.2,0.5-0.3L33.1,9.1L29.8,5.9z" class="st0"/><path data-cppathid="10002" d="M30.8,4.2l3.1,3c0.5-1.1,0.1-2.4-0.8-3.2c-0.8-0.9-2-1.3-3.2-1.1C29.7,2.9,30,3.1,30,3.2S30.8,4.1,30.8,4.2z" class="st0"/><path data-cppathid="10003" d="M3.7,27.5C0.7,18.4,4,10.6,12.4,6c1.3-0.7,0.3-2.7-1-2C2.2,9-1.1,17.4,2.3,27.5C3.7,31.8,3.7,27.5,3.7,27.5z" class="st0"/></svg>